<svg width="16" height="16" viewBox="0 0 16 16" fill="none" xmlns="http://www.w3.org/2000/svg">
<g id="Check icon 1" clip-path="url(#clip0_495_1865)">
<g id="Group">
<g id="Group_2">
<path id="Vector" d="M11.4713 5.862C11.2113 5.60166 10.7886 5.60166 10.5286 5.862L7.66662 8.72367L6.47129 7.52867C6.21129 7.26833 5.78862 7.26833 5.52862 7.52867C5.26829 7.789 5.26829 8.211 5.52862 8.47134L7.19529 10.138C7.32529 10.2683 7.49596 10.3333 7.66662 10.3333C7.83729 10.3333 8.00796 10.2683 8.13796 10.138L11.4713 6.80467C11.7316 6.54433 11.7316 6.12233 11.4713 5.862Z" fill="#11335F"/>
</g>
</g>
<g id="Group_3">
<g id="Group_4">
<path id="Vector_2" d="M15.3333 7.33333C14.9653 7.33333 14.6667 7.632 14.6667 8C14.6667 11.676 11.676 14.6667 8 14.6667C4.324 14.6667 1.33333 11.676 1.33333 8C1.33333 4.324 4.324 1.33333 8 1.33333C9.78967 1.33333 11.4697 2.03267 12.731 3.30267C12.99 3.56433 13.4123 3.56567 13.6737 3.306C13.935 3.04667 13.9363 2.62467 13.677 2.36333C12.1637 0.839333 10.1473 0 8 0C3.58867 0 0 3.58867 0 8C0 12.4113 3.58867 16 8 16C12.4113 16 16 12.4113 16 8C16 7.632 15.7013 7.33333 15.3333 7.33333Z" fill="#11335F"/>
</g>
</g>
</g>
<defs>
<clipPath id="clip0_495_1865">
<rect width="16" height="16" fill="white"/>
</clipPath>
</defs>
</svg>
